<svg width="22" height="22" viewBox="0 0 22 22" fill="none" xmlns="http://www.w3.org/2000/svg">
  <path d="M20.7371 15.678L17.9677 14.1868C17.2576 13.8317 16.7605 14.1157 16.1924 14.8969C14.9142 16.6721 14.2752 17.0272 12.7129 16.104C11.2217 15.2519 10.1566 14.3288 8.87839 12.9796C7.5292 11.6304 6.60608 10.6363 5.75396 9.14504C4.90184 7.58282 5.25689 6.94374 6.96113 5.66556C7.74224 5.09748 8.02628 4.5294 7.67123 3.89031L6.18001 1.12092C5.54092 -0.0862531 4.68881 -0.228274 3.41063 0.268796C1.63538 0.836876 -0.0688659 3.46425 0.00214413 4.67142C0.286184 8.22192 2.06144 12.4825 5.75396 16.246C9.44648 19.9386 13.7781 21.7138 17.3286 21.9979C18.5358 22.0689 21.0921 20.3646 21.7312 18.5894C22.0152 17.1692 21.8732 16.3171 20.7371 15.678Z" fill="#665AFF" />
  <path d="M12.3574 4.95557C11.7893 4.95557 11.2922 5.45264 11.2922 6.02072C11.2922 6.5888 11.7893 7.08587 12.3574 7.08587C12.9965 7.08587 13.5646 7.2989 14.0616 7.79597C14.4877 8.22202 14.7717 8.86111 14.7717 9.5002C14.7717 10.0683 15.2688 10.5654 15.8369 10.5654C16.405 10.5654 16.902 10.0683 16.902 9.5002C16.902 8.29303 16.476 7.15687 15.5528 6.30475C14.7007 5.45263 13.5646 4.95557 12.3574 4.95557ZM18.7483 3.1093C17.044 1.40506 14.7717 0.481934 12.4284 0.481934C11.8603 0.481934 11.3632 0.979004 11.3632 1.54708C11.3632 2.11516 11.8603 2.61223 12.4284 2.61223C14.2746 2.61223 15.9789 3.32234 17.2571 4.60052C18.5353 5.8787 19.2454 7.58293 19.2454 9.42919C19.2454 9.99727 19.7424 10.4943 20.3105 10.4943C20.8786 10.4943 21.3757 9.99727 21.3757 9.42919C21.3046 7.08586 20.3815 4.81354 18.7483 3.1093Z" fill="#665AFF" />
</svg>
