<svg xmlns="http://www.w3.org/2000/svg" xmlns:xlink="http://www.w3.org/1999/xlink"><symbol id="icon-close"><g fill="none"><path d="M.293 18.291a1 1 0 1 0 1.414 1.414L10 11.413l8.292 8.292a1 1 0 1 0 1.414-1.414l-8.292-8.292 8.292-8.292A1 1 0 1 0 18.291.293L9.999 8.585 1.707.293A1 1 0 1 0 .293 1.707L8.585 10 .293 18.291z"/></g></symbol><symbol id="icon-phone"><g fill="none"><path d="m20.737 15.678-2.77-1.491c-.71-.355-1.206-.071-1.775.71-1.278 1.775-1.917 2.13-3.48 1.207-1.49-.852-2.555-1.775-3.834-3.124-1.349-1.35-2.272-2.344-3.124-3.835-.852-1.562-.497-2.201 1.207-3.48.781-.568 1.065-1.136.71-1.775L6.18 1.12C5.54-.085 4.689-.227 3.41.27 1.636.837-.068 3.464.003 4.67c.284 3.55 2.06 7.811 5.752 11.575 3.692 3.693 8.024 5.468 11.575 5.752 1.207.07 3.763-1.633 4.402-3.409.284-1.42.142-2.272-.994-2.911Z" fill="#665AFF"/><path d="M12.357 4.956c-.568 0-1.065.497-1.065 1.065s.497 1.065 1.065 1.065c.64 0 1.208.213 1.705.71a2.48 2.48 0 0 1 .71 1.704c0 .568.497 1.065 1.065 1.065s1.065-.497 1.065-1.065c0-1.207-.426-2.343-1.35-3.195-.851-.852-1.987-1.35-3.195-1.35Zm6.391-1.847a8.925 8.925 0 0 0-6.32-2.627c-.568 0-1.065.497-1.065 1.065s.497 1.065 1.065 1.065c1.847 0 3.55.71 4.83 1.989a6.763 6.763 0 0 1 1.987 4.828c0 .568.497 1.065 1.066 1.065.568 0 1.065-.497 1.065-1.065-.071-2.343-.995-4.615-2.628-6.32Z" fill="#665AFF"/></g></symbol></svg>